<svg xmlns="http://www.w3.org/2000/svg"
     viewBox="0 0 64 64">
  <!-- Hintergrund falls gewünscht: auskommentieren, wenn transparent -->
  <!-- <rect width="64" height="64" fill="#ffffff"/> -->

  <!-- Histogramm-Gruppe -->
  <g transform="translate(3,52)" fill="#07C983">
    <!-- kleine äußere Punkte -->
    <rect x="0"  y="-4"  width="2" height="4" />
    <rect x="4"  y="-8"  width="2" height="8" />

    <!-- Balken links -->
    <rect x="8"  y="-14" width="2.5" height="14" />
    <rect x="12" y="-22" width="2.5" height="22" />
    <rect x="16" y="-30" width="2.5" height="30" />
    <rect x="20" y="-36" width="2.5" height="36" />
    <rect x="24" y="-40" width="2.5" height="40" />

    <!-- höchster Balken -->
    <rect x="28" y="-44" width="2.5" height="44" />

    <!-- Balken rechts (symmetrisch) -->
    <rect x="32" y="-40" width="2.5" height="40" />
    <rect x="36" y="-36" width="2.5" height="36" />
    <rect x="40" y="-30" width="2.5" height="30" />
    <rect x="44" y="-22" width="2.5" height="22" />
    <rect x="48" y="-14" width="2.5" height="14" />

    <!-- kleine äußere Punkte rechts -->
    <rect x="52" y="-8"  width="2" height="8" />
    <rect x="56" y="-4"  width="2" height="4" />
  </g>
</svg>
