<svg xmlns="http://www.w3.org/2000/svg" viewBox="0 0 2000 300">

  <!-- Histogramm links -->
  <g transform="translate(40,240)" fill="#15803D">
    <!-- kleine äußere Punkte -->
    <rect x="0"   y="-10" width="4" height="10"/>
    <rect x="20"  y="-22" width="4" height="22"/>

    <!-- Balken links -->
    <rect x="40"  y="-40" width="6" height="40"/>
    <rect x="60"  y="-70" width="6" height="70"/>
    <rect x="80"  y="-100" width="6" height="100"/>
    <rect x="100" y="-130" width="6" height="130"/>
    <rect x="120" y="-150" width="6" height="150"/>

    <!-- höchster Balken -->
    <rect x="140" y="-165" width="6" height="165"/>

    <!-- Balken rechts -->
    <rect x="160" y="-150" width="6" height="150"/>
    <rect x="180" y="-130" width="6" height="130"/>
    <rect x="200" y="-100" width="6" height="100"/>
    <rect x="220" y="-70"  width="6" height="70"/>
    <rect x="240" y="-40"  width="6" height="40"/>

    <!-- kleine äußere Punkte rechts -->
    <rect x="260" y="-22" width="4" height="22"/>
    <rect x="280" y="-10" width="4" height="10"/>
  </g>

  <!-- Vertikale grüne Linie -->
  <rect x="350" y="20" width="10" height="260" fill="#16A34A"/>

  <!-- Text -->
  <text x="390" y="210"
        font-family="'Anton','Impact','Oswald',Arial,sans-serif"
        font-size="150"
        font-weight="900"
        fill="#E5E7EB">
    BINOMIALVERTEILUNG.APP
  </text>

</svg>
