<?xml version="1.0" encoding="UTF-8"?>
<svg version="1.1" xmlns="http://www.w3.org/2000/svg" width="2000" height="327">
<path d="M0 0 C9.57 0 19.14 0 29 0 C30.25365563 5.64145034 31.3599854 10.93853774 32.12915039 16.61523438 C32.22537186 17.3171994 32.32159332 18.01916443 32.42073059 18.74240112 C32.62642673 20.24641257 32.83042918 21.75065648 33.03285408 23.25511169 C33.35309677 25.63416716 33.67818697 28.01251726 34.00450134 30.39074707 C34.81247106 36.28625873 35.61266886 42.18281915 36.41229248 48.07946777 C37.09146762 53.08632464 37.7739592 58.09270579 38.46117973 63.09846497 C38.78193798 65.44520445 39.09770392 67.79258229 39.41334534 70.14001465 C39.60872343 71.56668531 39.80434288 72.99332295 40.00024414 74.41992188 C40.16964005 75.66962769 40.33903595 76.9193335 40.51356506 78.20690918 C40.70631683 80.89808354 40.70631683 80.89808354 42 82 C42.13558823 81.0316925 42.27117645 80.06338501 42.41087341 79.06573486 C43.68862731 69.94265398 44.96863524 60.81989182 46.25085354 51.69743729 C46.90998897 47.00743425 47.56832836 42.31732233 48.22485352 37.62695312 C48.85840311 33.10093947 49.49403718 28.57522303 50.13112068 24.04970551 C50.37387494 22.32264387 50.61587653 20.59547626 50.85711479 18.86820221 C51.19499061 16.44993633 51.53553471 14.03206023 51.87670898 11.61425781 C51.97597183 10.89928131 52.07523468 10.18430481 52.17750549 9.44766235 C52.63466163 6.2266893 53.20924574 3.16301705 54 0 C63.57 0 73.14 0 83 0 C83 42.24 83 84.48 83 128 C76.73 128 70.46 128 64 128 C63.67 99.95 63.34 71.9 63 43 C58.71 71.05 54.42 99.1 50 128 C44.06 128 38.12 128 32 128 C27.22774225 100.39891312 23.14821559 72.70164307 19 45 C18.67 72.39 18.34 99.78 18 128 C12.06 128 6.12 128 0 128 C0 85.76 0 43.52 0 0 Z " fill="#000000" transform="translate(822,110)"/>
<path d="M0 0 C8.58 0 17.16 0 26 0 C30.18869948 14.81427049 34.03101534 29.70211346 37.8125 44.625 C40.8753125 56.690625 40.8753125 56.690625 44 69 C44.33 46.23 44.66 23.46 45 0 C50.94 0 56.88 0 63 0 C63 42.24 63 84.48 63 128 C56.07 128 49.14 128 42 128 C36.83656329 110.31889417 32.19813946 92.52840723 27.625 74.6875 C25.10875 64.890625 22.5925 55.09375 20 45 C19.67 72.39 19.34 99.78 19 128 C12.73 128 6.46 128 0 128 C0 85.76 0 43.52 0 0 Z " fill="#000000" transform="translate(672,110)"/>
<path d="M0 0 C8.58 0 17.16 0 26 0 C30.18869948 14.81427049 34.03101534 29.70211346 37.8125 44.625 C40.8753125 56.690625 40.8753125 56.690625 44 69 C44.33 46.23 44.66 23.46 45 0 C50.94 0 56.88 0 63 0 C63 42.24 63 84.48 63 128 C56.07 128 49.14 128 42 128 C37.15524324 110.85402718 32.68231137 93.61536061 28.1875 76.375 C24.1346875 60.844375 24.1346875 60.844375 20 45 C19.67 72.39 19.34 99.78 19 128 C12.73 128 6.46 128 0 128 C0 85.76 0 43.52 0 0 Z " fill="#000000" transform="translate(1590,110)"/>
<path d="M0 0 C45.6 0 45.6 0 54 7 C58.87399539 13.227883 60.33156069 19.34255626 60.75 27.125 C60.79092773 27.86983643 60.83185547 28.61467285 60.87402344 29.38208008 C61.25324822 38.47076893 60.86958991 48.61978813 54.47265625 55.6875 C53.02023026 57.1638483 51.51403392 58.58690168 50 60 C51.0725 60.680625 52.145 61.36125 53.25 62.0625 C59.19055471 66.39490455 61.00737147 71.00951186 62.25 78.0625 C63.85818569 90.58337427 65.21417727 106.44976299 57.46484375 117.25390625 C51.59824431 124.24689278 47.60234545 125.38117851 38 128 C25.46 128 12.92 128 0 128 C0 85.76 0 43.52 0 0 Z M21 19 C21 29.89 21 40.78 21 52 C29.71687883 52.14634136 29.71687883 52.14634136 37 49 C40.96468307 43.05297539 40.50239817 35.93488906 40 29 C39.3392056 25.90495564 38.48228531 23.85869309 37 21 C31.95650161 18.10557281 31.95650161 18.10557281 21 19 Z M21 71 C21 83.54 21 96.08 21 109 C33.11392398 110.1147408 33.11392398 110.1147408 39 106 C42.88810813 102.11189187 42.22846854 96.48337447 42.25 91.25 C42.32044809 82.2118108 42.32044809 82.2118108 39 74 C33.11392398 69.8852592 33.11392398 69.8852592 21 71 Z " fill="#000000" transform="translate(564,110)"/>
<path d="M0 0 C44.86486486 0 44.86486486 0 53 7 C61.38121368 17.06212562 60.85244349 30.58158007 60 43 C58.9380562 51.21558343 55.94395294 56.29990154 50 62 C49.67 62.33 49.34 62.66 49 63 C49.9075 63.474375 50.815 63.94875 51.75 64.4375 C56.61012152 67.66609136 58.39386872 73.04891402 59.5300293 78.58056641 C60.1066347 82.77585749 60.21166277 86.8952529 60.28125 91.125 C60.29965942 91.99012207 60.31806885 92.85524414 60.33703613 93.74658203 C60.41521164 97.42664015 60.48325771 101.10686944 60.55224609 104.78710938 C60.60423993 107.4831568 60.66138161 110.17906244 60.71875 112.875 C60.73232544 113.70016113 60.74590088 114.52532227 60.7598877 115.37548828 C60.77660522 116.15649902 60.79332275 116.93750977 60.81054688 117.7421875 C60.82307495 118.4213623 60.83560303 119.10053711 60.84851074 119.80029297 C61.03814083 122.55382579 61.54624978 125.27749871 62 128 C55.07 128 48.14 128 41 128 C38.75085125 122.37712812 38.75085125 122.37712812 38.72875977 118.87158203 C38.71857315 118.09372345 38.70838654 117.31586487 38.69789124 116.51443481 C38.69575119 115.68724945 38.69361115 114.86006409 38.69140625 114.0078125 C38.66624601 112.23306964 38.64084799 110.45833013 38.61523438 108.68359375 C38.58652547 105.90349196 38.56248951 103.12344843 38.54370117 100.34326172 C38.52195209 97.64780905 38.48250879 94.95302963 38.44140625 92.2578125 C38.44129044 91.4346756 38.44117462 90.6115387 38.4410553 89.76345825 C38.35086437 84.46129399 37.49794369 80.70535731 35 76 C33.23224411 74.79523538 33.23224411 74.79523538 31.1875 74.625 C30.54167969 74.51414062 29.89585938 74.40328125 29.23046875 74.2890625 C28.49441406 74.19367188 27.75835938 74.09828125 27 74 C25.02 73.67 23.04 73.34 21 73 C21 91.15 21 109.3 21 128 C14.07 128 7.14 128 0 128 C0 85.76 0 43.52 0 0 Z M21 19 C21 30.55 21 42.1 21 54 C30.24537769 54.83105162 30.24537769 54.83105162 37 51 C39.07351972 46.12502279 39.33550106 41.7653407 39.3125 36.5625 C39.32861328 35.83740234 39.34472656 35.11230469 39.36132812 34.36523438 C39.36596924 29.19967085 38.53859295 25.53279238 36 21 C31.10557281 18.18010841 31.10557281 18.18010841 21 19 Z " fill="#000000" transform="translate(1216,110)"/>
<path d="M0 0 C8.19062489 -0.40821442 16.46007325 1.22306464 23.33203125 5.8515625 C29.71320324 11.63858439 32.68550298 18.89318546 33.23190308 27.43389893 C33.42871442 32.54293376 33.39764185 37.64996127 33.36328125 42.76171875 C33.36343652 44.65257828 33.3649301 46.54343813 33.36769104 48.43429565 C33.36906897 52.37968165 33.35661662 56.32470144 33.33374023 60.27001953 C33.30531843 65.30791152 33.30811176 70.34519774 33.32083035 75.38313484 C33.32780858 79.28153593 33.31997443 83.17979879 33.30757332 87.07818222 C33.30308241 88.93518416 33.3027012 90.79220106 33.30663872 92.64920425 C33.30957314 95.24967789 33.29293997 97.84933682 33.27124023 100.44970703 C33.27574188 101.20423157 33.28024353 101.9587561 33.28488159 102.73614502 C33.16020217 111.80066213 30.34520387 118.68216291 24.1171875 125.2421875 C16.99397293 131.41316679 8.05539614 132.81046995 -1.1328125 132.19140625 C-9.70907703 131.2354532 -15.64761612 128.51818462 -21.8828125 122.56640625 C-29.29545033 112.5840022 -28.7254532 100.93542057 -28.6640625 89.12890625 C-28.66676303 87.28767696 -28.6706501 85.44644907 -28.67565918 83.60522461 C-28.68152785 79.76239326 -28.67307676 75.919936 -28.65429688 72.07714844 C-28.63150889 67.17834182 -28.64464619 62.28041211 -28.66858673 57.38163757 C-28.68311627 53.58436608 -28.67840611 49.78729876 -28.66807556 45.99002075 C-28.665428 44.18490492 -28.66860777 42.37976989 -28.67799377 40.57467651 C-28.72928857 27.94050927 -28.36650831 16.52545894 -19.125 6.84765625 C-13.52104787 2.18868429 -7.11216136 0.63827089 0 0 Z M-5.1328125 22.19140625 C-7.68209444 25.79193223 -7.42194583 29.66905219 -7.4074707 33.90991211 C-7.41258163 34.6827504 -7.41769257 35.45558868 -7.42295837 36.25184631 C-7.43684421 38.80339326 -7.4358984 41.35466979 -7.43359375 43.90625 C-7.4374812 45.6821757 -7.44181597 47.45810048 -7.44657898 49.23402405 C-7.45403899 52.95544448 -7.45375147 56.67677005 -7.44848633 60.39819336 C-7.44269156 65.1642411 -7.45962386 69.92990025 -7.482831 74.69588375 C-7.49757137 78.36335008 -7.49843964 82.03072288 -7.49532127 85.69821358 C-7.49583432 87.45526461 -7.50106894 89.2123209 -7.51113319 90.96934319 C-7.52348647 93.42765342 -7.51671298 95.88520749 -7.50512695 98.34350586 C-7.51277069 99.06730438 -7.52041443 99.79110291 -7.52828979 100.53683472 C-7.48273521 104.91560155 -6.88586256 107.74446084 -4.1328125 111.19140625 C0.14139908 113.16411929 2.13791267 113.4066021 6.6796875 112.06640625 C10.04981909 110.0839759 10.64667862 109.720695 11.8671875 106.19140625 C12.07251184 103.55331936 12.17119857 101.01953253 12.17358398 98.38110352 C12.1819075 97.59851166 12.19023102 96.8159198 12.19880676 96.00961304 C12.22287943 93.42562877 12.23167473 90.84189696 12.23828125 88.2578125 C12.24724848 86.4594668 12.25637035 84.66112187 12.26564026 82.86277771 C12.28212453 79.09429105 12.28982955 75.32589318 12.29272461 71.55737305 C12.29811301 66.73058507 12.33581396 61.90463215 12.38146877 57.07808018 C12.41122032 53.36428278 12.41844772 49.65068714 12.41945076 45.93678093 C12.42365557 44.15737005 12.43610037 42.37795871 12.45696831 40.59866524 C12.48384908 38.10885358 12.47906881 35.62098656 12.46655273 33.13110352 C12.48138702 32.39795425 12.49622131 31.66480499 12.51150513 30.90943909 C12.45571119 27.0085251 11.98544598 25.33879718 9.51332092 22.25767517 C4.26530618 18.15969218 0.31865829 18.59839141 -5.1328125 22.19140625 Z " fill="#000000" transform="translate(776.1328125,107.80859375)"/>
<path d="M0 0 C5.0446499 4.43733283 7.81854675 10.1944894 9.01171875 16.76953125 C9.23821269 20.42055724 9.20169478 24.0508799 9.13671875 27.70703125 C9.12769531 28.67705078 9.11867188 29.64707031 9.109375 30.64648438 C9.08598134 33.02094123 9.05011651 35.39526963 9.01171875 37.76953125 C2.41171875 37.76953125 -4.18828125 37.76953125 -10.98828125 37.76953125 C-11.23828125 28.51953125 -11.23828125 28.51953125 -11.28613281 25.62402344 C-11.47339836 20.57670133 -11.47339836 20.57670133 -13.8515625 16.21484375 C-16.63979234 14.32883819 -18.6306027 13.90657935 -21.98828125 13.76953125 C-24.82589098 14.47893368 -26.41168799 14.94978796 -28.11273193 17.36816406 C-29.33889333 20.73115422 -29.26673012 23.97159611 -29.24707031 27.50390625 C-29.25057495 28.27835083 -29.25407959 29.05279541 -29.25769043 29.85070801 C-29.2664828 32.40707398 -29.26066745 34.96316253 -29.25390625 37.51953125 C-29.25525362 39.2978521 -29.25719475 41.0761726 -29.25970459 42.85449219 C-29.26265247 46.58011383 -29.258369 50.30563952 -29.24902344 54.03125 C-29.2376291 58.80629107 -29.24419037 63.58110731 -29.25616837 68.35614014 C-29.26339602 72.02784926 -29.26109487 75.69950509 -29.25591278 79.37121582 C-29.25457879 81.1318769 -29.25621523 82.89254282 -29.26087189 84.65319824 C-29.26595198 87.11398125 -29.25820611 89.57440034 -29.24707031 92.03515625 C-29.25111877 92.76255005 -29.25516724 93.48994385 -29.25933838 94.23937988 C-29.2289 97.87089637 -29.18718593 100.78365852 -26.98828125 103.76953125 C-23.84824017 105.18562821 -21.45146249 106.09853058 -18.0078125 105.32421875 C-15.84601695 104.53255207 -15.84601695 104.53255207 -12.98828125 102.76953125 C-11.84533811 99.34070184 -11.77863653 96.52870287 -11.671875 92.9140625 C-11.6510939 92.25242599 -11.63031281 91.59078949 -11.60890198 90.90910339 C-11.54363398 88.80018273 -11.48462781 86.6911399 -11.42578125 84.58203125 C-11.38257436 83.1503781 -11.33895937 81.71873721 -11.29492188 80.28710938 C-11.18797619 76.78137971 -11.08664484 73.27551339 -10.98828125 69.76953125 C-14.28828125 69.76953125 -17.58828125 69.76953125 -20.98828125 69.76953125 C-21.01512112 66.79030532 -21.03504162 63.8113183 -21.05078125 60.83203125 C-21.05916016 59.98189453 -21.06753906 59.13175781 -21.07617188 58.25585938 C-21.08100586 57.0425293 -21.08100586 57.0425293 -21.0859375 55.8046875 C-21.09379272 54.68139038 -21.09379272 54.68139038 -21.10180664 53.53540039 C-20.98828125 51.76953125 -20.98828125 51.76953125 -19.98828125 50.76953125 C-17.84269298 50.6817752 -15.69423704 50.66257906 -13.546875 50.671875 C-12.24169922 50.67509766 -10.93652344 50.67832031 -9.59179688 50.68164062 C-8.20312435 50.68999724 -6.81445248 50.6984622 -5.42578125 50.70703125 C-4.03320469 50.71204459 -2.64062644 50.71660778 -1.24804688 50.72070312 C2.17191745 50.73253691 5.59179719 50.74902245 9.01171875 50.76953125 C9.08819656 57.84953846 9.14049735 64.92943791 9.17651367 72.00976562 C9.19153881 74.41507956 9.21196471 76.82036638 9.23803711 79.22558594 C9.27469675 82.69603189 9.29150846 86.16611352 9.3046875 89.63671875 C9.32017136 90.70066864 9.33565521 91.76461853 9.35160828 92.86080933 C9.35378979 102.68371767 7.84715911 110.86758895 0.89453125 118.08203125 C-5.66063561 123.95720154 -13.9998549 126.33943683 -22.76171875 126.0078125 C-32.47916922 124.96787482 -39.66560762 122.51212735 -45.98828125 114.76953125 C-47.70334243 111.86345537 -48.97315832 108.9840872 -49.98828125 105.76953125 C-50.25109894 104.96293564 -50.25109894 104.96293564 -50.51922607 104.14004517 C-51.20133026 100.69282286 -51.14423446 97.26319606 -51.14941406 93.76318359 C-51.15437897 92.95936249 -51.15934387 92.15554138 -51.16445923 91.32736206 C-51.1790532 88.67005553 -51.1858797 86.01280877 -51.19140625 83.35546875 C-51.19716178 81.50184122 -51.20291946 79.6482137 -51.2086792 77.79458618 C-51.21918258 73.90586063 -51.22502899 70.0171557 -51.22851562 66.12841797 C-51.23398642 61.16559656 -51.25798692 56.20305144 -51.28648758 51.24031639 C-51.30519306 47.4088158 -51.31032385 43.57738055 -51.3118515 39.74583817 C-51.31486281 37.91755291 -51.32283943 36.08926839 -51.33603668 34.26102829 C-51.42769821 20.58197094 -51.3218761 10.17373873 -41.328125 -0.16015625 C-30.365253 -9.86019325 -11.32077739 -8.12013876 0 0 Z " fill="#000000" transform="translate(1716.98828125,114.23046875)"/>
<path d="M0 0 C6.93 0 13.86 0 21 0 C21.01458252 3.02293213 21.02916504 6.04586426 21.04418945 9.16040039 C21.09455569 19.15490599 21.16115455 29.14925612 21.23571491 39.14360905 C21.28041748 45.20241526 21.3196741 51.26115424 21.34643555 57.32006836 C21.37246929 63.16867743 21.41287281 69.01702778 21.46318626 74.86547661 C21.47985438 77.09531877 21.49136899 79.32520568 21.49761391 81.55510139 C21.50725532 84.68162194 21.53531615 87.80748067 21.56762695 90.93383789 C21.56547432 92.31272438 21.56547432 92.31272438 21.5632782 93.71946716 C21.64330343 99.20495547 22.27941881 103.18649299 25 108 C29.00728892 109.96583985 31.01306159 110.27932219 35.3125 109.0625 C38.69845909 106.46397325 39.28470715 104.04057383 40 100 C40.28270188 96.67350263 40.31092472 93.36290837 40.31884766 90.02563477 C40.33391609 88.5610659 40.33391609 88.5610659 40.34928894 87.06690979 C40.3800356 83.85841428 40.39713248 80.65000189 40.4140625 77.44140625 C40.43278098 75.20937896 40.4523549 72.97735869 40.4727478 70.74534607 C40.524003 64.88465523 40.56366419 59.02394147 40.60089111 53.16314697 C40.64097217 47.17706664 40.69204581 41.19108114 40.7421875 35.20507812 C40.83886859 23.47011218 40.92228197 11.73510687 41 0 C47.6 0 54.2 0 61 0 C61.06794414 13.22227756 61.12291318 26.44443798 61.15543652 39.66685104 C61.17105093 45.80742664 61.19221185 51.94787596 61.22631836 58.08837891 C61.25906264 64.02117392 61.27688474 69.95384793 61.28463173 75.88672638 C61.29014826 78.14319003 61.3009203 80.39964753 61.31719017 82.65605927 C61.52081072 112.08233385 61.52081072 112.08233385 53.7265625 121.31640625 C47.17353213 127.70635215 40.01166564 129.68179901 31.0625 130.25 C22.14432849 129.93149387 14.77152709 128.07563893 8 122 C0.54507347 112.87226069 -0.15788753 102.27656591 -0.11352539 90.93383789 C-0.11367142 89.94770508 -0.11381744 88.96157227 -0.1139679 87.94555664 C-0.1132744 84.70456702 -0.10550845 81.46363576 -0.09765625 78.22265625 C-0.09579007 75.96821626 -0.09436711 73.71377587 -0.09336853 71.45933533 C-0.08955912 65.53940705 -0.07974232 59.6195035 -0.06866455 53.69958496 C-0.05841651 47.65324233 -0.05386365 41.60689569 -0.04882812 35.56054688 C-0.0381186 23.70701867 -0.02053459 11.85351526 0 0 Z " fill="#000000" transform="translate(1516,110)"/>
<path d="M0 0 C9.24 0 18.48 0 28 0 C29.20843721 4.22953022 30.26337528 7.95628267 30.96182251 12.21194458 C31.12444077 13.1903833 31.28705902 14.16882202 31.4546051 15.1769104 C31.71031532 16.75440567 31.71031532 16.75440567 31.97119141 18.36376953 C32.24960625 20.05037689 32.24960625 20.05037689 32.53364563 21.77105713 C33.14378193 25.47430492 33.74786493 29.17851005 34.3515625 32.8828125 C34.77444069 35.46161905 35.19757054 38.04038435 35.62094116 40.61911011 C36.50645568 46.01691125 37.38850105 51.41527087 38.26855469 56.81396484 C39.28499971 63.04903455 40.30731049 69.28312146 41.33267272 75.51673043 C42.32089466 81.52558399 43.3046162 87.53516501 44.28641891 93.54507065 C44.70389974 96.09776722 45.12255747 98.65027161 45.54240799 101.2025795 C46.12800462 104.76610781 46.70848284 108.33043293 47.28759766 111.89501953 C47.4621196 112.95073151 47.63664154 114.00644348 47.81645203 115.09414673 C47.97343063 116.0669458 48.13040924 117.03974487 48.29214478 118.04202271 C48.42965967 118.8837459 48.56717457 119.72546909 48.70885658 120.59269905 C49 123 49 123 49 128 C42.07 128 35.14 128 28 128 C27.505 124.98875 27.01 121.9775 26.5 118.875 C26.34337891 117.93769043 26.18675781 117.00038086 26.02539062 116.03466797 C25.90357422 115.27814941 25.78175781 114.52163086 25.65625 113.7421875 C25.53056641 112.9776123 25.40488281 112.21303711 25.27539062 111.42529297 C24.95836185 108.63330371 25 105.80993083 25 103 C17.74 103 10.48 103 3 103 C2.79503906 104.63710937 2.59007812 106.27421875 2.37890625 107.9609375 C2.10696191 110.09898265 1.83481607 112.23700217 1.5625 114.375 C1.42779297 115.45523438 1.29308594 116.53546875 1.15429688 117.6484375 C1.02216797 118.6796875 0.89003906 119.7109375 0.75390625 120.7734375 C0.63345947 121.72653809 0.5130127 122.67963867 0.38891602 123.66162109 C0 126 0 126 -1 128 C-7.27 128 -13.54 128 -20 128 C-19.40809661 119.90641105 -18.47956273 111.99058107 -17.14233398 103.98925781 C-16.95687012 102.85609131 -16.77140625 101.7229248 -16.58032227 100.55541992 C-15.97337347 96.8539059 -15.35979407 93.15352507 -14.74609375 89.453125 C-14.32112635 86.86959491 -13.89657732 84.28599597 -13.47242737 81.70233154 C-12.47397274 75.62472345 -11.47073293 69.54791574 -10.46571165 63.47139049 C-9.32047474 56.54562278 -8.18066626 49.61896509 -7.04128158 42.69223261 C-4.70016729 28.46049926 -2.3516242 14.23000061 0 0 Z M13 26 C10.36 45.47 7.72 64.94 5 85 C10.61 85 16.22 85 22 85 C20.60441647 71.73518181 18.84467298 58.56548539 16.875 45.375 C16.5947566 43.48181455 16.31480723 41.58858555 16.03515625 39.6953125 C15.36014314 35.12970159 14.68121095 30.56469009 14 26 C13.67 26 13.34 26 13 26 Z " fill="#000000" transform="translate(969,110)"/>
<path d="M0 0 C9.24 0 18.48 0 28 0 C29.21400122 4.24900427 30.26732135 7.98145538 30.96182251 12.25663757 C31.12444077 13.24493561 31.28705902 14.23323364 31.4546051 15.2514801 C31.71031532 16.84535805 31.71031532 16.84535805 31.97119141 18.47143555 C32.24960625 20.1750827 32.24960625 20.1750827 32.53364563 21.91314697 C33.14378359 25.65367324 33.74783212 29.39515337 34.3515625 33.13671875 C34.77441254 35.74034537 35.19754276 38.34392649 35.62094116 40.94746399 C36.50642694 46.39654893 37.38852019 51.84617477 38.26855469 57.29614258 C39.28548252 63.59362862 40.30766365 69.89024478 41.33267272 76.18642014 C42.32020057 82.25305948 43.30412613 88.32027676 44.28641891 94.38776588 C44.70419313 96.96635929 45.12285341 99.5448093 45.54240799 102.12311363 C46.12724068 105.72049828 46.70798521 109.31851914 47.28759766 112.91674805 C47.4621196 113.98540604 47.63664154 115.05406403 47.81645203 116.15510559 C48.05191994 117.62486343 48.05191994 117.62486343 48.29214478 119.12431335 C48.42965967 119.97433269 48.56717457 120.82435202 48.70885658 121.70012951 C49 124 49 124 49 128 C42.07 128 35.14 128 28 128 C27.505 124.98875 27.01 121.9775 26.5 118.875 C26.34337891 117.93769043 26.18675781 117.00038086 26.02539062 116.03466797 C25.90357422 115.27814941 25.78175781 114.52163086 25.65625 113.7421875 C25.53056641 112.9776123 25.40488281 112.21303711 25.27539062 111.42529297 C24.95836185 108.63330371 25 105.80993083 25 103 C17.74 103 10.48 103 3 103 C2.79503906 104.63710937 2.59007812 106.27421875 2.37890625 107.9609375 C2.10696191 110.09898265 1.83481607 112.23700217 1.5625 114.375 C1.42779297 115.45523438 1.29308594 116.53546875 1.15429688 117.6484375 C1.02216797 118.6796875 0.89003906 119.7109375 0.75390625 120.7734375 C0.63345947 121.72653809 0.5130127 122.67963867 0.38891602 123.66162109 C0 126 0 126 -1 128 C-7.27 128 -13.54 128 -20 128 C-19.40809661 119.90641105 -18.47956273 111.99058107 -17.14233398 103.98925781 C-16.95687012 102.85609131 -16.77140625 101.7229248 -16.58032227 100.55541992 C-15.97337347 96.8539059 -15.35979407 93.15352507 -14.74609375 89.453125 C-14.32112635 86.86959491 -13.89657732 84.28599597 -13.47242737 81.70233154 C-12.47397274 75.62472345 -11.47073293 69.54791574 -10.46571165 63.47139049 C-9.32047474 56.54562278 -8.18066626 49.61896509 -7.04128158 42.69223261 C-4.70016729 28.46049926 -2.3516242 14.23000061 0 0 Z M13 26 C10.36 45.47 7.72 64.94 5 85 C10.61 85 16.22 85 22 85 C20.60441647 71.73518181 18.84467298 58.56548539 16.875 45.375 C16.5947566 43.48181455 16.31480723 41.58858555 16.03515625 39.6953125 C15.36014314 35.12970159 14.68121095 30.56469009 14 26 C13.67 26 13.34 26 13 26 Z " fill="#000000" transform="translate(1789,110)"/>
<path d="M0 0 C4.95 0 9.9 0 15 0 C15 105.27 15 210.54 15 319 C10.05 319 5.1 319 0 319 C0 213.73 0 108.46 0 0 Z " fill="#5DBB66" transform="translate(482,4)"/>
<path d="M0 0 C7.26 0 14.52 0 22 0 C25.96 29.7 29.92 59.4 34 90 C35.16330997 83.60179519 36.28563341 77.35265492 37.12915039 70.92993164 C37.22537186 70.20323273 37.32159332 69.47653381 37.42073059 68.72781372 C37.62595973 67.17521112 37.82997828 65.62244807 38.03285408 64.06953621 C38.35422804 61.60985818 38.67896511 59.15064348 39.00450134 56.69151306 C39.69347879 51.48223237 40.37818201 46.2723945 41.0625 41.0625 C41.85965302 34.99629213 42.65857701 28.93032513 43.46117973 22.86483574 C43.78049627 20.4454636 44.09699106 18.02573329 44.41334534 15.60597229 C44.60884716 14.12539975 44.80447333 12.64484363 45.00024414 11.16430664 C45.16964005 9.8740004 45.33903595 8.58369415 45.51356506 7.25428772 C46 4 46 4 47 0 C53.27 0 59.54 0 66 0 C65.29920478 13.012729 63.1910642 25.79479736 61.21875 38.6640625 C60.84109136 41.14931166 60.46377761 43.63461326 60.08679199 46.1199646 C59.19923569 51.96370317 58.30709159 57.80672784 57.4130187 63.64947259 C56.59831508 68.97608096 55.78902387 74.30350006 54.98120642 79.63115656 C54.10437197 85.41355622 53.22446432 91.19548372 52.34303284 96.9771843 C51.96917309 99.43075754 51.59599153 101.88443422 51.22349548 104.33821487 C50.70438872 107.75404648 50.1818071 111.16932793 49.65820312 114.58447266 C49.50440689 115.60054596 49.35061066 116.61661926 49.19215393 117.66348267 C49.04918381 118.59120483 48.90621368 119.518927 48.75891113 120.47476196 C48.6357679 121.28103846 48.51262466 122.08731495 48.38574982 122.91802406 C48 125 48 125 47 128 C42.52084672 128.02886338 38.04171709 128.04675187 33.5625 128.0625 C32.28310547 128.07087891 31.00371094 128.07925781 29.68554688 128.08789062 C28.47060547 128.09111328 27.25566406 128.09433594 26.00390625 128.09765625 C24.31503296 128.10551147 24.31503296 128.10551147 22.59204102 128.11352539 C20 128 20 128 19 127 C18.67356013 125.37623514 18.40437841 123.74091797 18.15843201 122.10302734 C17.99718842 121.04291443 17.83594482 119.98280151 17.66981506 118.89056396 C17.49574631 117.71753723 17.32167755 116.5445105 17.14233398 115.3359375 C16.95687012 114.10844788 16.77140625 112.88095825 16.58032227 111.61627197 C16.07117207 108.24077866 15.56573509 104.86476813 15.06195331 101.48847198 C14.53498331 97.96242283 14.00344891 94.43706192 13.47242737 90.91162109 C12.58118443 84.99031603 11.69297788 79.06856218 10.80688477 73.14648438 C9.55576535 64.78485498 8.29905117 56.42407349 7.04128158 48.06344223 C6.06675909 41.58413074 5.09386104 35.10457519 4.12109375 28.625 C4.01636081 27.92755424 3.91162786 27.23010849 3.80372119 26.51152802 C3.11068912 21.89588777 2.41911776 17.28003053 1.72827148 12.6640625 C1.5521785 11.49103577 1.37608551 10.31800903 1.19465637 9.10943604 C1.0362326 8.04932312 0.87780884 6.98921021 0.71458435 5.89697266 C0.57577064 4.97002594 0.43695692 4.04307922 0.29393673 3.08804321 C0 1 0 1 0 0 Z " fill="#000000" transform="translate(1075,110)"/>
<path d="M0 0 C44.52542373 0 44.52542373 0 53 8 C62.60854361 20.20544729 61.27614753 39.22844966 59.5390625 53.890625 C57.81643975 61.79442349 54.33116199 67.3067201 48.0625 72.375 C38.76608271 77.30779285 32.14534812 76 21 76 C21 93.16 21 110.32 21 128 C14.07 128 7.14 128 0 128 C0 85.76 0 43.52 0 0 Z M21 19 C21 31.54 21 44.08 21 57 C31.85289241 57.96251762 31.85289241 57.96251762 36.1875 55.25 C40.12175934 50.36609185 39.21877924 44.11158066 39.25 38.125 C39.270625 37.14402344 39.29125 36.16304687 39.3125 35.15234375 C39.34173532 29.73650084 39.26296878 25.5710959 36 21 C31.10557281 18.18010841 31.10557281 18.18010841 21 19 Z " fill="#000000" transform="translate(1847,110)"/>
<path d="M0 0 C43.32593284 0 43.32593284 0 51.46875 6.43359375 C59.77337113 14.9288822 60.34444962 26.76049546 60.25 38 C60.26160156 39.38058594 60.26160156 39.38058594 60.2734375 40.7890625 C60.24572387 50.6274 59.20407202 61.02344854 52.5 68.72265625 C43.18439526 77.49916349 34.03954885 76 21 76 C21 93.16 21 110.32 21 128 C14.07 128 7.14 128 0 128 C0 85.76 0 43.52 0 0 Z M21 19 C21 31.54 21 44.08 21 57 C31.85289241 57.96251762 31.85289241 57.96251762 36.1875 55.25 C40.12175934 50.36609185 39.21877924 44.11158066 39.25 38.125 C39.270625 37.14402344 39.29125 36.16304687 39.3125 35.15234375 C39.34173532 29.73650084 39.26296878 25.5710959 36 21 C31.10557281 18.18010841 31.10557281 18.18010841 21 19 Z " fill="#000000" transform="translate(1917,110)"/>
<path d="M0 0 C18.48 0 36.96 0 56 0 C56 6.27 56 12.54 56 19 C44.45 19 32.9 19 21 19 C21 29.89 21 40.78 21 52 C30.24 52 39.48 52 49 52 C49 58.27 49 64.54 49 71 C39.76 71 30.52 71 21 71 C21 83.54 21 96.08 21 109 C32.55 109 44.1 109 56 109 C56 115.27 56 121.54 56 128 C37.52 128 19.04 128 0 128 C0 85.76 0 43.52 0 0 Z " fill="#000000" transform="translate(1354,110)"/>
<path d="M0 0 C18.15 0 36.3 0 55 0 C55 6.27 55 12.54 55 19 C43.78 19 32.56 19 21 19 C21 29.89 21 40.78 21 52 C29.91 52 38.82 52 48 52 C48 58.27 48 64.54 48 71 C39.09 71 30.18 71 21 71 C21 83.54 21 96.08 21 109 C32.22 109 43.44 109 55 109 C55 115.27 55 121.54 55 128 C36.85 128 18.7 128 0 128 C0 85.76 0 43.52 0 0 Z " fill="#000000" transform="translate(1150,110)"/>
<path d="M0 0 C20.79 0 41.58 0 63 0 C63 6.27 63 12.54 63 19 C56.07 19 49.14 19 42 19 C42 54.97 42 90.94 42 128 C35.07 128 28.14 128 21 128 C21 92.03 21 56.06 21 19 C14.07 19 7.14 19 0 19 C0 12.73 0 6.46 0 0 Z " fill="#000000" transform="translate(1283,110)"/>
<path d="M0 0 C6.93 0 13.86 0 21 0 C21 35.97 21 71.94 21 109 C31.89 109 42.78 109 54 109 C54.020625 111.949375 54.04125 114.89875 54.0625 117.9375 C54.071604 118.86812256 54.08070801 119.79874512 54.09008789 120.75756836 C54.09258545 121.48596924 54.09508301 122.21437012 54.09765625 122.96484375 C54.10289307 123.7137085 54.10812988 124.46257324 54.11352539 125.23413086 C54 127 54 127 53 128 C35.51 128 18.02 128 0 128 C0 85.76 0 43.52 0 0 Z " fill="#000000" transform="translate(1455,110)"/>
<path d="M0 0 C6.93 0 13.86 0 21 0 C21 35.97 21 71.94 21 109 C31.56 109 42.12 109 53 109 C53 115.27 53 121.54 53 128 C35.51 128 18.02 128 0 128 C0 85.76 0 43.52 0 0 Z " fill="#000000" transform="translate(1027,110)"/>
<path d="M0 0 C6.93 0 13.86 0 21 0 C21 42.24 21 84.48 21 128 C14.07 128 7.14 128 0 128 C0 85.76 0 43.52 0 0 Z " fill="#000000" transform="translate(1420,110)"/>
<path d="M0 0 C6.93 0 13.86 0 21 0 C21 42.24 21 84.48 21 128 C14.07 128 7.14 128 0 128 C0 85.76 0 43.52 0 0 Z " fill="#000000" transform="translate(919,110)"/>
<path d="M0 0 C6.93 0 13.86 0 21 0 C21 42.24 21 84.48 21 128 C14.07 128 7.14 128 0 128 C0 85.76 0 43.52 0 0 Z " fill="#000000" transform="translate(637,110)"/>
<path d="M0 0 C2.97 0 5.94 0 9 0 C9 64.02 9 128.04 9 194 C6.03 194 3.06 194 0 194 C0 129.98 0 65.96 0 0 Z " fill="#5EBB67" transform="translate(216,77)"/>
<path d="M0 0 C2.97 0 5.94 0 9 0 C9 64.02 9 128.04 9 194 C6.03 194 3.06 194 0 194 C0 129.98 0 65.96 0 0 Z " fill="#5DBB66" transform="translate(188,77)"/>
<path d="M0 0 C3.3 0 6.6 0 10 0 C10 49.83 10 99.66 10 151 C6.7 151 3.4 151 0 151 C0 101.17 0 51.34 0 0 Z " fill="#5DBC67" transform="translate(244,120)"/>
<path d="M0 0 C2.97 0 5.94 0 9 0 C9 55.11 9 110.22 9 167 C6.03 167 3.06 167 0 167 C0 111.89 0 56.78 0 0 Z " fill="#5DBB66" transform="translate(160,104)"/>
<path d="M0 0 C3.3 0 6.6 0 10 0 C10 40.59 10 81.18 10 123 C6.7 123 3.4 123 0 123 C0 82.41 0 41.82 0 0 Z " fill="#5DBA64" transform="translate(272,148)"/>
<path d="M0 0 C2.97 0 5.94 0 9 0 C9 38.94 9 77.88 9 118 C6.03 118 3.06 118 0 118 C0 79.06 0 40.12 0 0 Z " fill="#5DBB66" transform="translate(132,153)"/>
<path d="M0 0 C2.97 0 5.94 0 9 0 C9 24.75 9 49.5 9 75 C6.03 75 3.06 75 0 75 C0 50.25 0 25.5 0 0 Z " fill="#5EBB67" transform="translate(104,196)"/>
<path d="M0 0 C2.97 0 5.94 0 9 0 C9 23.1 9 46.2 9 70 C6.03 70 3.06 70 0 70 C0 46.9 0 23.8 0 0 Z " fill="#5DBC66" transform="translate(300,201)"/>
<path d="M0 0 C3.3 0 6.6 0 10 0 C10 15.51 10 31.02 10 47 C6.7 47 3.4 47 0 47 C0 31.49 0 15.98 0 0 Z " fill="#5EBC66" transform="translate(328,224)"/>
<path d="M0 0 C6.6 0 13.2 0 20 0 C20 6.6 20 13.2 20 20 C13.4 20 6.8 20 0 20 C0 13.4 0 6.8 0 0 Z " fill="#000000" transform="translate(1738,218)"/>
<path d="M0 0 C2.97 0 5.94 0 9 0 C9 13.53 9 27.06 9 41 C6.03 41 3.06 41 0 41 C0 27.47 0 13.94 0 0 Z " fill="#5DBB66" transform="translate(76,230)"/>
<path d="M0 0 C2.97 0 5.94 0 9 0 C9 8.91 9 17.82 9 27 C6.03 27 3.06 27 0 27 C0 18.09 0 9.18 0 0 Z " fill="#5DBB66" transform="translate(357,244)"/>
<path d="M0 0 C2.97 0 5.94 0 9 0 C9 6.93 9 13.86 9 21 C6.03 21 3.06 21 0 21 C0 14.07 0 7.14 0 0 Z " fill="#5DBB66" transform="translate(48,250)"/>
<path d="M0 0 C2.97 0 5.94 0 9 0 C9 4.95 9 9.9 9 15 C6.03 15 3.06 15 0 15 C0 10.05 0 5.1 0 0 Z " fill="#5DBC66" transform="translate(385,256)"/>
<path d="M0 0 C2.97 0 5.94 0 9 0 C9 2.97 9 5.94 9 9 C6.03 9 3.06 9 0 9 C0 6.03 0 3.06 0 0 Z " fill="#5DBB66" transform="translate(20,262)"/>
</svg>
