<?xml version="1.0" encoding="UTF-8"?>
<svg xmlns="http://www.w3.org/2000/svg" viewBox="0 0 960 640" role="img" aria-labelledby="title desc">
  <title id="title">Normalverteilung (μ=6, σ≈1.5)</title>
  <desc id="desc">Normalverteilung mit Mittelwert 6 und Standardabweichung 1.5. Verbesserte Textplatzierung.</desc>
  <style>
    .axis { stroke: #111; stroke-width: 2; }
    .grid { stroke: #ddd; stroke-width: 1; stroke-dasharray: 3 3; }
    .tick { stroke: #111; stroke-width: 1.5; }
    .label { font: 16px system-ui, sans-serif; fill: #111; }
    .title { font: 700 26px system-ui, sans-serif; }
    .curve { fill: none; stroke: #d33; stroke-width: 3; }
    .mu-line { stroke: #06f; stroke-width: 3; }
    .info-box { font: 600 18px system-ui, sans-serif; fill: #111; }
    .box { fill: #fff; stroke: #ccc; }
  </style>

  <rect width="960" height="640" fill="#fff"/>

  <!-- Grid lines -->
  <g>
    <line class="grid" x1="80" y1="540.0" x2="900" y2="540.0"/>
    <line class="grid" x1="80" y1="471.42857142857144" x2="900" y2="471.42857142857144"/>
    <line class="grid" x1="80" y1="402.8571428571429" x2="900" y2="402.8571428571429"/>
    <line class="grid" x1="80" y1="334.2857142857143" x2="900" y2="334.2857142857143"/>
    <line class="grid" x1="80" y1="265.71428571428567" x2="900" y2="265.71428571428567"/>
    <line class="grid" x1="80" y1="197.1428571428571" x2="900" y2="197.1428571428571"/>
    <line class="grid" x1="80" y1="128.57142857142856" x2="900" y2="128.57142857142856"/>
    <line class="grid" x1="80" y1="60.0" x2="900" y2="60.0"/>
  </g>
  <g>
    <line class="axis" x1="80" y1="60" x2="80" y2="540"/>
    <line class="axis" x1="80" y1="540" x2="900" y2="540"/>
  </g>
  <line class="tick" x1="80.0" y1="540" x2="80.0" y2="548"/>
  <text class="label" x="80.0" y="570" text-anchor="middle">0</text>
  <line class="tick" x1="154.54545454545456" y1="540" x2="154.54545454545456" y2="548"/>
  <text class="label" x="154.54545454545456" y="570" text-anchor="middle">1</text>
  <line class="tick" x1="229.0909090909091" y1="540" x2="229.0909090909091" y2="548"/>
  <text class="label" x="229.0909090909091" y="570" text-anchor="middle">2</text>
  <line class="tick" x1="303.6363636363636" y1="540" x2="303.6363636363636" y2="548"/>
  <text class="label" x="303.6363636363636" y="570" text-anchor="middle">3</text>
  <line class="tick" x1="378.1818181818182" y1="540" x2="378.1818181818182" y2="548"/>
  <text class="label" x="378.1818181818182" y="570" text-anchor="middle">4</text>
  <line class="tick" x1="452.7272727272727" y1="540" x2="452.7272727272727" y2="548"/>
  <text class="label" x="452.7272727272727" y="570" text-anchor="middle">5</text>
  <line class="tick" x1="527.2727272727273" y1="540" x2="527.2727272727273" y2="548"/>
  <text class="label" x="527.2727272727273" y="570" text-anchor="middle">6</text>
  <line class="tick" x1="601.8181818181818" y1="540" x2="601.8181818181818" y2="548"/>
  <text class="label" x="601.8181818181818" y="570" text-anchor="middle">7</text>
  <line class="tick" x1="676.3636363636364" y1="540" x2="676.3636363636364" y2="548"/>
  <text class="label" x="676.3636363636364" y="570" text-anchor="middle">8</text>
  <line class="tick" x1="750.909090909091" y1="540" x2="750.909090909091" y2="548"/>
  <text class="label" x="750.909090909091" y="570" text-anchor="middle">9</text>
  <line class="tick" x1="825.4545454545454" y1="540" x2="825.4545454545454" y2="548"/>
  <text class="label" x="825.4545454545454" y="570" text-anchor="middle">10</text>
  <line class="tick" x1="900.0" y1="540" x2="900.0" y2="548"/>
  <text class="label" x="900.0" y="570" text-anchor="middle">11</text>
  <line class="tick" x1="72" y1="540.0" x2="80" y2="540.0"/>
  <text class="label" x="65" y="545.0" text-anchor="end">0.00</text>
  <line class="tick" x1="72" y1="471.42857142857144" x2="80" y2="471.42857142857144"/>
  <text class="label" x="65" y="476.42857142857144" text-anchor="end">0.05</text>
  <line class="tick" x1="72" y1="402.8571428571429" x2="80" y2="402.8571428571429"/>
  <text class="label" x="65" y="407.8571428571429" text-anchor="end">0.10</text>
  <line class="tick" x1="72" y1="334.2857142857143" x2="80" y2="334.2857142857143"/>
  <text class="label" x="65" y="339.2857142857143" text-anchor="end">0.15</text>
  <line class="tick" x1="72" y1="265.71428571428567" x2="80" y2="265.71428571428567"/>
  <text class="label" x="65" y="270.71428571428567" text-anchor="end">0.20</text>
  <line class="tick" x1="72" y1="197.1428571428571" x2="80" y2="197.1428571428571"/>
  <text class="label" x="65" y="202.1428571428571" text-anchor="end">0.25</text>
  <line class="tick" x1="72" y1="128.57142857142856" x2="80" y2="128.57142857142856"/>
  <text class="label" x="65" y="133.57142857142856" text-anchor="end">0.30</text>
  <line class="tick" x1="72" y1="60.0" x2="80" y2="60.0"/>
  <text class="label" x="65" y="65.0" text-anchor="end">0.35</text>
  <text class="label" x="35" y="45" text-anchor="end">f(x)</text>
  <text class="label" x="920" y="550">x</text>
  <polyline class="curve" points="80.00,539.88 81.49,539.87 82.98,539.86 84.47,539.86 85.96,539.85 87.45,539.84 88.95,539.83 90.44,539.82 91.93,539.81 93.42,539.80 94.91,539.79 96.40,539.78 97.89,539.77 99.38,539.76 100.87,539.75 102.36,539.73 103.85,539.72 105.35,539.70 106.84,539.69 108.33,539.67 109.82,539.66 111.31,539.64 112.80,539.62 114.29,539.60 115.78,539.58 117.27,539.56 118.76,539.54 120.25,539.52 121.75,539.49 123.24,539.47 124.73,539.44 126.22,539.41 127.71,539.38 129.20,539.35 130.69,539.32 132.18,539.29 133.67,539.26 135.16,539.22 136.65,539.18 138.15,539.14 139.64,539.10 141.13,539.06 142.62,539.02 144.11,538.97 145.60,538.92 147.09,538.87 148.58,538.82 150.07,538.77 151.56,538.71 153.05,538.65 154.55,538.59 156.04,538.53 157.53,538.46 159.02,538.39 160.51,538.32 162.00,538.24 163.49,538.16 164.98,538.08 166.47,538.00 167.96,537.91 169.45,537.82 170.95,537.73 172.44,537.63 173.93,537.52 175.42,537.42 176.91,537.31 178.40,537.19 179.89,537.07 181.38,536.95 182.87,536.82 184.36,536.69 185.85,536.55 187.35,536.41 188.84,536.26 190.33,536.11 191.82,535.95 193.31,535.78 194.80,535.61 196.29,535.44 197.78,535.25 199.27,535.06 200.76,534.87 202.25,534.66 203.75,534.45 205.24,534.23 206.73,534.01 208.22,533.78 209.71,533.53 211.20,533.29 212.69,533.03 214.18,532.76 215.67,532.49 217.16,532.20 218.65,531.91 220.15,531.61 221.64,531.30 223.13,530.97 224.62,530.64 226.11,530.30 227.60,529.95 229.09,529.58 230.58,529.20 232.07,528.82 233.56,528.42 235.05,528.01 236.55,527.58 238.04,527.14 239.53,526.69 241.02,526.23 242.51,525.75 244.00,525.26 245.49,524.76 246.98,524.24 248.47,523.71 249.96,523.16 251.45,522.59 252.95,522.01 254.44,521.41 255.93,520.80 257.42,520.17 258.91,519.53 260.40,518.86 261.89,518.18 263.38,517.48 264.87,516.76 266.36,516.03 267.85,515.27 269.35,514.50 270.84,513.70 272.33,512.89 273.82,512.05 275.31,511.20 276.80,510.32 278.29,509.43 279.78,508.51 281.27,507.57 282.76,506.60 284.25,505.62 285.75,504.61 287.24,503.58 288.73,502.53 290.22,501.45 291.71,500.35 293.20,499.22 294.69,498.07 296.18,496.89 297.67,495.69 299.16,494.47 300.65,493.22 302.15,491.94 303.64,490.64 305.13,489.31 306.62,487.95 308.11,486.57 309.60,485.16 311.09,483.72 312.58,482.26 314.07,480.76 315.56,479.25 317.05,477.70 318.55,476.12 320.04,474.52 321.53,472.89 323.02,471.22 324.51,469.54 326.00,467.82 327.49,466.07 328.98,464.29 330.47,462.49 331.96,460.66 333.45,458.79 334.95,456.90 336.44,454.98 337.93,453.03 339.42,451.06 340.91,449.05 342.40,447.01 343.89,444.95 345.38,442.86 346.87,440.74 348.36,438.59 349.85,436.41 351.35,434.20 352.84,431.97 354.33,429.71 355.82,427.42 357.31,425.11 358.80,422.76 360.29,420.40 361.78,418.00 363.27,415.58 364.76,413.14 366.25,410.67 367.75,408.17 369.24,405.65 370.73,403.11 372.22,400.54 373.71,397.95 375.20,395.34 376.69,392.70 378.18,390.05 379.67,387.37 381.16,384.68 382.65,381.96 384.15,379.23 385.64,376.47 387.13,373.70 388.62,370.91 390.11,368.11 391.60,365.29 393.09,362.46 394.58,359.61 396.07,356.75 397.56,353.88 399.05,350.99 400.55,348.10 402.04,345.19 403.53,342.28 405.02,339.36 406.51,336.43 408.00,333.50 409.49,330.56 410.98,327.61 412.47,324.67 413.96,321.72 415.45,318.77 416.95,315.82 418.44,312.87 419.93,309.93 421.42,306.98 422.91,304.04 424.40,301.11 425.89,298.18 427.38,295.26 428.87,292.35 430.36,289.45 431.85,286.56 433.35,283.69 434.84,280.82 436.33,277.97 437.82,275.14 439.31,272.32 440.80,269.52 442.29,266.75 443.78,263.99 445.27,261.25 446.76,258.54 448.25,255.85 449.75,253.18 451.24,250.54 452.73,247.93 454.22,245.35 455.71,242.80 457.20,240.28 458.69,237.79 460.18,235.34 461.67,232.92 463.16,230.53 464.65,228.19 466.15,225.88 467.64,223.61 469.13,221.38 470.62,219.19 472.11,217.04 473.60,214.94 475.09,212.88 476.58,210.87 478.07,208.91 479.56,206.99 481.05,205.12 482.55,203.30 484.04,201.53 485.53,199.81 487.02,198.14 488.51,196.52 490.00,194.96 491.49,193.46 492.98,192.01 494.47,190.61 495.96,189.27 497.45,187.99 498.95,186.77 500.44,185.61 501.93,184.50 503.42,183.46 504.91,182.48 506.40,181.55 507.89,180.69 509.38,179.89 510.87,179.15 512.36,178.48 513.85,177.87 515.35,177.32 516.84,176.84 518.33,176.42 519.82,176.06 521.31,175.77 522.80,175.54 524.29,175.38 525.78,175.29 527.27,175.25 528.76,175.29 530.25,175.38 531.75,175.54 533.24,175.77 534.73,176.06 536.22,176.42 537.71,176.84 539.20,177.32 540.69,177.87 542.18,178.48 543.67,179.15 545.16,179.89 546.65,180.69 548.15,181.55 549.64,182.48 551.13,183.46 552.62,184.50 554.11,185.61 555.60,186.77 557.09,187.99 558.58,189.27 560.07,190.61 561.56,192.01 563.05,193.46 564.55,194.96 566.04,196.52 567.53,198.14 569.02,199.81 570.51,201.53 572.00,203.30 573.49,205.12 574.98,206.99 576.47,208.91 577.96,210.87 579.45,212.88 580.95,214.94 582.44,217.04 583.93,219.19 585.42,221.38 586.91,223.61 588.40,225.88 589.89,228.19 591.38,230.53 592.87,232.92 594.36,235.34 595.85,237.79 597.35,240.28 598.84,242.80 600.33,245.35 601.82,247.93 603.31,250.54 604.80,253.18 606.29,255.85 607.78,258.54 609.27,261.25 610.76,263.99 612.25,266.75 613.75,269.52 615.24,272.32 616.73,275.14 618.22,277.97 619.71,280.82 621.20,283.69 622.69,286.56 624.18,289.45 625.67,292.35 627.16,295.26 628.65,298.18 630.15,301.11 631.64,304.04 633.13,306.98 634.62,309.93 636.11,312.87 637.60,315.82 639.09,318.77 640.58,321.72 642.07,324.67 643.56,327.61 645.05,330.56 646.55,333.50 648.04,336.43 649.53,339.36 651.02,342.28 652.51,345.19 654.00,348.10 655.49,350.99 656.98,353.88 658.47,356.75 659.96,359.61 661.45,362.46 662.95,365.29 664.44,368.11 665.93,370.91 667.42,373.70 668.91,376.47 670.40,379.23 671.89,381.96 673.38,384.68 674.87,387.37 676.36,390.05 677.85,392.70 679.35,395.34 680.84,397.95 682.33,400.54 683.82,403.11 685.31,405.65 686.80,408.17 688.29,410.67 689.78,413.14 691.27,415.58 692.76,418.00 694.25,420.40 695.75,422.76 697.24,425.11 698.73,427.42 700.22,429.71 701.71,431.97 703.20,434.20 704.69,436.41 706.18,438.59 707.67,440.74 709.16,442.86 710.65,444.95 712.15,447.01 713.64,449.05 715.13,451.06 716.62,453.03 718.11,454.98 719.60,456.90 721.09,458.79 722.58,460.66 724.07,462.49 725.56,464.29 727.05,466.07 728.55,467.82 730.04,469.54 731.53,471.22 733.02,472.89 734.51,474.52 736.00,476.12 737.49,477.70 738.98,479.25 740.47,480.76 741.96,482.26 743.45,483.72 744.95,485.16 746.44,486.57 747.93,487.95 749.42,489.31 750.91,490.64 752.40,491.94 753.89,493.22 755.38,494.47 756.87,495.69 758.36,496.89 759.85,498.07 761.35,499.22 762.84,500.35 764.33,501.45 765.82,502.53 767.31,503.58 768.80,504.61 770.29,505.62 771.78,506.60 773.27,507.57 774.76,508.51 776.25,509.43 777.75,510.32 779.24,511.20 780.73,512.05 782.22,512.89 783.71,513.70 785.20,514.50 786.69,515.27 788.18,516.03 789.67,516.76 791.16,517.48 792.65,518.18 794.15,518.86 795.64,519.53 797.13,520.17 798.62,520.80 800.11,521.41 801.60,522.01 803.09,522.59 804.58,523.16 806.07,523.71 807.56,524.24 809.05,524.76 810.55,525.26 812.04,525.75 813.53,526.23 815.02,526.69 816.51,527.14 818.00,527.58 819.49,528.01 820.98,528.42 822.47,528.82 823.96,529.20 825.45,529.58 826.95,529.95 828.44,530.30 829.93,530.64 831.42,530.97 832.91,531.30 834.40,531.61 835.89,531.91 837.38,532.20 838.87,532.49 840.36,532.76 841.85,533.03 843.35,533.29 844.84,533.53 846.33,533.78 847.82,534.01 849.31,534.23 850.80,534.45 852.29,534.66 853.78,534.87 855.27,535.06 856.76,535.25 858.25,535.44 859.75,535.61 861.24,535.78 862.73,535.95 864.22,536.11 865.71,536.26 867.20,536.41 868.69,536.55 870.18,536.69 871.67,536.82 873.16,536.95 874.65,537.07 876.15,537.19 877.64,537.31 879.13,537.42 880.62,537.52 882.11,537.63 883.60,537.73 885.09,537.82 886.58,537.91 888.07,538.00 889.56,538.08 891.05,538.16 892.55,538.24 894.04,538.32 895.53,538.39 897.02,538.46 898.51,538.53 900.00,538.59"/>
  <line class="mu-line" x1="527.2727272727273" y1="60" x2="527.2727272727273" y2="540"/>
  <text class="label" x="527.2727272727273" y="580" text-anchor="middle">μ</text>
  <text class="title" x="90" y="45">Normalverteilung</text>
  <rect class="box" x="660" y="60" width="230" height="50" rx="8" ry="8"/>
  <text class="info-box" x="675" y="90">μ = 6 σ ≈ 1.5</text>
</svg>
